<svg width="40" height="40" viewBox="0 0 40 40" fill="none" xmlns="http://www.w3.org/2000/svg">
<circle cx="20" cy="20" r="20" fill="#A06AF9"/>
<path d="M15 15H13.2067C11.4713 15 10.0979 16.468 10.2133 18.1996L10.8133 27.1996C10.9184 28.7755 12.2273 30 13.8067 30H26.1934C27.7727 30 29.0817 28.7755 29.1867 27.1996L29.7867 18.1996C29.9021 16.468 28.5287 15 26.7934 15H25V17C25 17.5523 24.5523 18 24 18C23.4477 18 23 17.5523 23 17V15H17V17C17 17.5523 16.5523 18 16 18C15.4477 18 15 17.5523 15 17V15Z" fill="white"/>
<path fill-rule="evenodd" clip-rule="evenodd" d="M15 15C15 12.2386 17.2386 10 20 10C22.7614 10 25 12.2386 25 15H23C23 13.3431 21.6569 12 20 12C18.3431 12 17 13.3431 17 15H15Z" fill="white"/>
</svg>
