<svg width="48" height="50" viewBox="0 0 48 50" fill="none" xmlns="http://www.w3.org/2000/svg">
<ellipse cx="24" cy="24.6945" rx="24" ry="24.3547" fill="#A06AF9"/>
<path d="M19 20H17.2067C15.4713 20 14.0979 21.468 14.2133 23.1996L14.8133 32.1996C14.9184 33.7755 16.2273 35 17.8067 35H30.1934C31.7727 35 33.0817 33.7755 33.1867 32.1996L33.7867 23.1996C33.9021 21.468 32.5287 20 30.7934 20H29V22C29 22.5523 28.5523 23 28 23C27.4477 23 27 22.5523 27 22V20H21V22C21 22.5523 20.5523 23 20 23C19.4477 23 19 22.5523 19 22V20Z" fill="white"/>
<path fill-rule="evenodd" clip-rule="evenodd" d="M19 20C19 17.2386 21.2386 15 24 15C26.7614 15 29 17.2386 29 20H27C27 18.3431 25.6569 17 24 17C22.3431 17 21 18.3431 21 20H19Z" fill="white"/>
<path fill-rule="evenodd" clip-rule="evenodd" d="M38.7998 11.603C38.7536 11.2625 38.4617 11 38.1085 11C37.7232 11 37.4109 11.3124 37.4109 11.6977V14.4076H34.6977L34.603 14.414C34.2625 14.4602 34 14.7521 34 15.1053C34 15.4906 34.3124 15.803 34.6977 15.803H37.4109V18.5129L37.4172 18.6076C37.4634 18.9481 37.7553 19.2106 38.1085 19.2106C38.4938 19.2106 38.8062 18.8982 38.8062 18.5129V15.803H41.5194L41.614 15.7966C41.9546 15.7504 42.2171 15.4585 42.2171 15.1053C42.2171 14.72 41.9047 14.4076 41.5194 14.4076H38.8062V11.6977L38.7998 11.603Z" fill="white"/>
</svg>
