<svg width="24" height="24" viewBox="0 0 24 24" fill="none" xmlns="http://www.w3.org/2000/svg">
<path d="M7 7H5.20668C3.47129 7 2.09789 8.46801 2.21332 10.1996L2.81332 19.1996C2.91838 20.7755 4.22729 22 5.80668 22H18.1934C19.7727 22 21.0817 20.7755 21.1867 19.1996L21.7867 10.1996C21.9021 8.46801 20.5287 7 18.7934 7H17V9C17 9.55229 16.5523 10 16 10C15.4477 10 15 9.55229 15 9V7H9V9C9 9.55229 8.55228 10 8 10C7.44771 10 7 9.55229 7 9V7Z" fill="white"/>
<path fill-rule="evenodd" clip-rule="evenodd" d="M7 7C7 4.23858 9.23858 2 12 2C14.7614 2 17 4.23858 17 7H15C15 5.34315 13.6569 4 12 4C10.3431 4 9 5.34315 9 7H7Z" fill="white"/>
</svg>
