<svg width="16" height="16" viewBox="0 0 16 16" fill="none" xmlns="http://www.w3.org/2000/svg">
<path d="M15 1.00003C14.7812 0.781315 14.4846 0.658447 14.1752 0.658447C13.8658 0.658447 13.5691 0.781315 13.3504 1.00003L8.00003 6.35037L2.6497 1.00003C2.43092 0.781315 2.13422 0.658447 1.82486 0.658447C1.51551 0.658447 1.21881 0.781315 1.00003 1.00003C0.781315 1.21881 0.658447 1.51551 0.658447 1.82486C0.658447 2.13422 0.781315 2.43092 1.00003 2.6497L6.35037 8.00003L1.00003 13.3504C0.781315 13.5691 0.658447 13.8658 0.658447 14.1752C0.658447 14.4846 0.781315 14.7812 1.00003 15C1.21881 15.2187 1.51551 15.3416 1.82486 15.3416C2.13422 15.3416 2.43092 15.2187 2.6497 15L8.00003 9.6497L13.3504 15C13.5691 15.2187 13.8658 15.3416 14.1752 15.3416C14.4846 15.3416 14.7812 15.2187 15 15C15.2187 14.7812 15.3416 14.4846 15.3416 14.1752C15.3416 13.8658 15.2187 13.5691 15 13.3504L9.6497 8.00003L15 2.6497C15.2187 2.43092 15.3416 2.13422 15.3416 1.82486C15.3416 1.51551 15.2187 1.21881 15 1.00003Z" fill="#5E6272"/>
</svg>
