<svg width="24" height="24" viewBox="0 0 24 24" fill="none" xmlns="http://www.w3.org/2000/svg">
<path fill-rule="evenodd" clip-rule="evenodd" d="M23 7C23 5.89543 22.1046 5 21 5L3 5.00002C1.89543 5.00002 1 5.89545 1 7.00002V7.76392C1 8.52147 1.44892 9.20362 1.98692 9.73696C2.49124 10.2369 3 10.9913 3 12C3 13.0087 2.49124 13.7631 1.98692 14.263C1.44892 14.7964 1 15.4785 1 16.2361V17C1 18.1046 1.89543 19 3 19H21C22.1046 19 23 18.1046 23 17V16.2361C23 15.4785 22.5511 14.7964 22.0131 14.263C21.5088 13.7631 21 13.0087 21 12C21 10.9913 21.5088 10.2369 22.0131 9.73696C22.5511 9.20363 23 8.52147 23 7.76392V7ZM10.7071 14.7071L14.7071 10.7071C15.0976 10.3166 15.0976 9.68342 14.7071 9.29289C14.3166 8.90237 13.6834 8.90237 13.2929 9.29289L9.29289 13.2929C8.90237 13.6834 8.90237 14.3166 9.29289 14.7071C9.68342 15.0976 10.3166 15.0976 10.7071 14.7071ZM9 10C9 10.5523 9.44772 11 10 11C10.5523 11 11 10.5523 11 10C11 9.44771 10.5523 9 10 9C9.44772 9 9 9.44771 9 10ZM15 14C15 14.5523 14.5523 15 14 15C13.4477 15 13 14.5523 13 14C13 13.4477 13.4477 13 14 13C14.5523 13 15 13.4477 15 14Z" fill="white"/>
</svg>
