<svg width="151" height="151" viewBox="0 0 151 151" fill="none" xmlns="http://www.w3.org/2000/svg">
<circle cx="75.5" cy="73" r="56" fill="#A06AF9"/>
<path fill-rule="evenodd" clip-rule="evenodd" d="M44.0273 95.9999C46.9112 87.6932 52.9543 80.8529 60.7042 76.9C64.9275 80.2231 70.236 82.2242 76.0137 82.2242C81.7914 82.2242 87.0999 80.2231 91.3232 76.9C99.073 80.8529 105.116 87.6932 108 95.9999C99.8284 104.213 88.5147 109.297 76.0137 109.297C63.5126 109.297 52.1989 104.213 44.0273 95.9999Z" fill="white"/>
<path d="M76 37C64.9733 37 56 46.1977 56 57.5C56 68.8023 64.9733 78 76 78C87.0267 78 96 68.8023 96 57.5C96 46.1977 87.0267 37 76 37Z" fill="white"/>
</svg>
