<svg width="18" height="18" viewBox="0 0 18 18" fill="none" xmlns="http://www.w3.org/2000/svg">
<g clip-path="url(#clip0)">
<path d="M13.125 1.43774C12.2805 1.45088 11.4544 1.68663 10.7301 2.1212C10.0058 2.55576 9.40905 3.17375 9.00003 3.91274C8.59101 3.17375 7.99423 2.55576 7.26996 2.1212C6.54569 1.68663 5.71957 1.45088 4.87503 1.43774C3.52874 1.49624 2.26031 2.08518 1.34687 3.07592C0.433424 4.06665 -0.0507831 5.37864 2.97532e-05 6.72524C2.97532e-05 10.1355 3.58953 13.86 6.60003 16.3852C7.27219 16.9501 8.12205 17.2598 9.00003 17.2598C9.87801 17.2598 10.7279 16.9501 11.4 16.3852C14.4105 13.86 18 10.1355 18 6.72524C18.0508 5.37864 17.5666 4.06665 16.6532 3.07592C15.7398 2.08518 14.4713 1.49624 13.125 1.43774Z" fill="url(#paint0_linear)"/>
</g>
<defs>
<linearGradient id="paint0_linear" x1="11.7793" y1="4.17225" x2="-0.00360107" y2="4.17225" gradientUnits="userSpaceOnUse">
<stop stop-color="#C393FF"/>
<stop offset="1" stop-color="#E42A6C"/>
</linearGradient>
<clipPath id="clip0">
<rect width="18" height="18" fill="white"/>
</clipPath>
</defs>
</svg>
