<svg width="18" height="18" viewBox="0 0 18 18" fill="none" xmlns="http://www.w3.org/2000/svg">
<g clip-path="url(#clip0)">
<path d="M8.21258 4.34857L9.00001 5.77127L9.78745 4.34857C10.1198 3.74814 10.6047 3.24602 11.1931 2.89294C11.774 2.5444 12.4356 2.35326 13.1126 2.33814C14.2114 2.39285 15.2453 2.87661 15.9915 3.68598C16.7437 4.50188 17.1425 5.58234 17.1007 6.69131L17.1 6.70827V6.72524C17.1 8.13419 16.346 9.72211 15.1128 11.342C13.8959 12.9405 12.3016 14.4542 10.8216 15.6957L10.821 15.6962C10.311 16.1248 9.66618 16.3598 9.00001 16.3598C8.33385 16.3598 7.68902 16.1248 7.17902 15.6962L7.1784 15.6957C5.69838 14.4542 4.10413 12.9405 2.88717 11.342C1.654 9.72211 0.900011 8.13419 0.900011 6.72524V6.70827L0.899371 6.69131C0.857525 5.58234 1.25628 4.50188 2.00853 3.68598C2.75476 2.87661 3.78866 2.39285 4.88747 2.33814C5.56444 2.35326 6.22599 2.5444 6.80689 2.89294C7.39536 3.24602 7.88025 3.74814 8.21258 4.34857Z" stroke="#246BFD" stroke-width="1.8"/>
</g>
<defs>
<clipPath id="clip0">
<rect width="18" height="18" fill="white"/>
</clipPath>
</defs>
</svg>
