<svg width="14" height="14" viewBox="0 0 14 14" fill="none" xmlns="http://www.w3.org/2000/svg">
<g clip-path="url(#clip0)">
<path d="M10.2083 1.11816C9.55147 1.12838 8.90894 1.31175 8.34561 1.64974C7.78229 1.98773 7.31813 2.46839 7 3.04316C6.68187 2.46839 6.21771 1.98773 5.65439 1.64974C5.09107 1.31175 4.44853 1.12838 3.79167 1.11816C2.74455 1.16366 1.758 1.62173 1.04754 2.3923C0.337086 3.16287 -0.03952 4.1833 1.10106e-06 5.23066C1.10106e-06 7.88308 2.79183 10.7799 5.13333 12.744C5.65613 13.1833 6.31712 13.4242 7 13.4242C7.68288 13.4242 8.34387 13.1833 8.86667 12.744C11.2082 10.7799 14 7.88308 14 5.23066C14.0395 4.1833 13.6629 3.16287 12.9525 2.3923C12.242 1.62173 11.2555 1.16366 10.2083 1.11816Z" fill="white"/>
</g>
<defs>
<clipPath id="clip0">
<rect width="14" height="14" fill="white"/>
</clipPath>
</defs>
</svg>
