<svg width="48" height="50" viewBox="0 0 48 50" fill="none" xmlns="http://www.w3.org/2000/svg">
<ellipse cx="24" cy="24.6945" rx="24" ry="24.3547" fill="#8E96FF"/>
<path fill-rule="evenodd" clip-rule="evenodd" d="M38.7998 11.603C38.7536 11.2625 38.4617 11 38.1085 11C37.7232 11 37.4109 11.3124 37.4109 11.6977V14.4076H34.6977L34.603 14.414C34.2625 14.4602 34 14.7521 34 15.1053C34 15.4906 34.3124 15.803 34.6977 15.803H37.4109V18.5129L37.4172 18.6076C37.4634 18.9481 37.7553 19.2106 38.1085 19.2106C38.4938 19.2106 38.8062 18.8982 38.8062 18.5129V15.803H41.5194L41.614 15.7966C41.9546 15.7504 42.2171 15.4585 42.2171 15.1053C42.2171 14.72 41.9047 14.4076 41.5194 14.4076H38.8062V11.6977L38.7998 11.603Z" fill="white"/>
<path d="M23 28.5C23 28.2239 22.7761 28 22.5 28H16C15.4477 28 15 28.4477 15 29V32C15 33.6569 16.3431 35 18 35H22.5C22.7761 35 23 34.7761 23 34.5V28.5Z" fill="white"/>
<path d="M25 34.5C25 34.7761 25.2239 35 25.5 35H30C31.6569 35 33 33.6569 33 32V29C33 28.4477 32.5523 28 32 28H25.5C25.2239 28 25 28.2239 25 28.5V34.5Z" fill="white"/>
<path d="M23 21.5C23 21.2239 22.7761 21 22.5 21H16C14.8954 21 14 21.8954 14 23V24C14 25.1046 14.8954 26 16 26H22.5C22.7761 26 23 25.7761 23 25.5V21.5Z" fill="white"/>
<path d="M25 25.5C25 25.7761 25.2239 26 25.5 26H32C33.1046 26 34 25.1046 34 24V23C34 21.8954 33.1046 21 32 21H25.5C25.2239 21 25 21.2239 25 21.5V25.5Z" fill="white"/>
<path d="M19 17C19 15.8954 19.8954 15 21 15C22.1046 15 23 15.8954 23 17V18.5C23 18.7761 22.7761 19 22.5 19H21C19.8954 19 19 18.1046 19 17Z" fill="white"/>
<path d="M29 17C29 15.8954 28.1046 15 27 15C25.8954 15 25 15.8954 25 17V18.5C25 18.7761 25.2239 19 25.5 19H27C28.1046 19 29 18.1046 29 17Z" fill="white"/>
</svg>
