<svg width="40" height="40" viewBox="0 0 40 40" fill="none" xmlns="http://www.w3.org/2000/svg">
<circle cx="20" cy="20" r="20" fill="#8E96FF"/>
<path d="M19 23.5C19 23.2239 18.7761 23 18.5 23H12C11.4477 23 11 23.4477 11 24V27C11 28.6569 12.3431 30 14 30H18.5C18.7761 30 19 29.7761 19 29.5V23.5Z" fill="white"/>
<path d="M21 29.5C21 29.7761 21.2239 30 21.5 30H26C27.6569 30 29 28.6569 29 27V24C29 23.4477 28.5523 23 28 23H21.5C21.2239 23 21 23.2239 21 23.5V29.5Z" fill="white"/>
<path d="M19 16.5C19 16.2239 18.7761 16 18.5 16H12C10.8954 16 10 16.8954 10 18V19C10 20.1046 10.8954 21 12 21H18.5C18.7761 21 19 20.7761 19 20.5V16.5Z" fill="white"/>
<path d="M21 20.5C21 20.7761 21.2239 21 21.5 21H28C29.1046 21 30 20.1046 30 19V18C30 16.8954 29.1046 16 28 16H21.5C21.2239 16 21 16.2239 21 16.5V20.5Z" fill="white"/>
<path d="M15 12C15 10.8954 15.8954 10 17 10C18.1046 10 19 10.8954 19 12V13.5C19 13.7761 18.7761 14 18.5 14H17C15.8954 14 15 13.1046 15 12Z" fill="white"/>
<path d="M25 12C25 10.8954 24.1046 10 23 10C21.8954 10 21 10.8954 21 12V13.5C21 13.7761 21.2239 14 21.5 14H23C24.1046 14 25 13.1046 25 12Z" fill="white"/>
</svg>
