<svg width="24" height="24" viewBox="0 0 24 24" fill="none" xmlns="http://www.w3.org/2000/svg">
<g clip-path="url(#clip0)">
<path d="M17.5 1.91699C16.374 1.93451 15.2725 2.24885 14.3068 2.82826C13.3411 3.40768 12.5454 4.23166 12 5.21699C11.4546 4.23166 10.6589 3.40768 9.69324 2.82826C8.72754 2.24885 7.62605 1.93451 6.5 1.91699C4.70494 1.99498 3.01371 2.78025 1.79578 4.10122C0.57786 5.4222 -0.0677503 7.17152 2.52388e-07 8.96699C2.52388e-07 13.514 4.786 18.48 8.8 21.847C9.69622 22.6001 10.8294 23.013 12 23.013C13.1706 23.013 14.3038 22.6001 15.2 21.847C19.214 18.48 24 13.514 24 8.96699C24.0678 7.17152 23.4221 5.4222 22.2042 4.10122C20.9863 2.78025 19.2951 1.99498 17.5 1.91699Z" fill="white"/>
</g>
<defs>
<clipPath id="clip0">
<rect width="24" height="24" fill="white"/>
</clipPath>
</defs>
</svg>
