<svg width="16" height="16" viewBox="0 0 16 16" fill="none" xmlns="http://www.w3.org/2000/svg">
<circle cx="8" cy="8" r="8" fill="#262A34"/>
<path d="M8.00002 12C10.4 12 12.2667 9.93333 13.0667 8.73333C13.4 8.26667 13.4 7.66667 13.0667 7.2C12.2667 6.06667 10.4 4 8.00002 4C5.60002 4 3.73335 6.06667 2.93335 7.26667C2.60002 7.73333 2.60002 8.33333 2.93335 8.73333C3.73335 9.93333 5.60002 12 8.00002 12ZM8.00002 6C9.13335 6 10 6.86667 10 8C10 9.13333 9.13335 10 8.00002 10C6.86668 10 6.00002 9.13333 6.00002 8C6.00002 6.86667 6.86668 6 8.00002 6Z" fill="#5E6272"/>
</svg>
