<svg width="24" height="24" viewBox="0 0 24 24" fill="none" xmlns="http://www.w3.org/2000/svg">
<path d="M11 15.5C11 15.2239 10.7761 15 10.5 15H4C3.44772 15 3 15.4477 3 16V19C3 20.6569 4.34315 22 6 22H10.5C10.7761 22 11 21.7761 11 21.5V15.5Z" fill="white"/>
<path d="M13 21.5C13 21.7761 13.2239 22 13.5 22H18C19.6569 22 21 20.6569 21 19V16C21 15.4477 20.5523 15 20 15H13.5C13.2239 15 13 15.2239 13 15.5V21.5Z" fill="white"/>
<path d="M11 8.5C11 8.22386 10.7761 8 10.5 8H4C2.89543 8 2 8.89543 2 10V11C2 12.1046 2.89543 13 4 13H10.5C10.7761 13 11 12.7761 11 12.5V8.5Z" fill="white"/>
<path d="M13 12.5C13 12.7761 13.2239 13 13.5 13H20C21.1046 13 22 12.1046 22 11V10C22 8.89543 21.1046 8 20 8H13.5C13.2239 8 13 8.22386 13 8.5V12.5Z" fill="white"/>
<path d="M7 4C7 2.89543 7.89543 2 9 2C10.1046 2 11 2.89543 11 4V5.5C11 5.77614 10.7761 6 10.5 6H9C7.89543 6 7 5.10457 7 4Z" fill="white"/>
<path d="M17 4C17 2.89543 16.1046 2 15 2C13.8954 2 13 2.89543 13 4V5.5C13 5.77614 13.2239 6 13.5 6H15C16.1046 6 17 5.10457 17 4Z" fill="white"/>
</svg>
