<svg width="34" height="34" viewBox="0 0 34 34" fill="none" xmlns="http://www.w3.org/2000/svg">
<path fill-rule="evenodd" clip-rule="evenodd" d="M25.1348 11.3333H8.86523C7.2309 11.3333 5.93546 12.7123 6.03741 14.3434L6.74574 25.6767C6.83907 27.17 8.07738 28.3333 9.57356 28.3333H24.4264C25.9226 28.3333 27.1609 27.17 27.2543 25.6767L27.9626 14.3434C28.0645 12.7123 26.7691 11.3333 25.1348 11.3333ZM8.86523 8.5C5.59657 8.5 3.0057 11.2579 3.2096 14.5201L3.91793 25.8535C4.10459 28.84 6.5812 31.1667 9.57356 31.1667H24.4264C27.4188 31.1667 29.8954 28.84 30.0821 25.8535L30.7904 14.5201C30.9943 11.2579 28.4034 8.5 25.1348 8.5H8.86523Z" fill="white"/>
<path fill-rule="evenodd" clip-rule="evenodd" d="M9.91667 9.91671C9.91667 6.00469 13.088 2.83337 17 2.83337C20.912 2.83337 24.0833 6.00469 24.0833 9.91671V12.75C24.0833 13.5324 23.4491 14.1667 22.6667 14.1667C21.8843 14.1667 21.25 13.5324 21.25 12.75V9.91671C21.25 7.5695 19.3472 5.66671 17 5.66671C14.6528 5.66671 12.75 7.5695 12.75 9.91671V12.75C12.75 13.5324 12.1157 14.1667 11.3333 14.1667C10.5509 14.1667 9.91667 13.5324 9.91667 12.75V9.91671Z" fill="white"/>
</svg>
