<svg width="10" height="9" viewBox="0 0 10 9" fill="none" xmlns="http://www.w3.org/2000/svg">
<path d="M8.86818 3.44822L6.38869 3.08786L5.28029 0.840793C5.25002 0.77927 5.20021 0.729465 5.13869 0.699192C4.98439 0.62302 4.79689 0.686497 4.71974 0.840793L3.61135 3.08786L1.13185 3.44822C1.06349 3.45798 1.00099 3.49021 0.953143 3.53904C0.895293 3.5985 0.863415 3.67849 0.864514 3.76144C0.865613 3.84439 0.899598 3.92351 0.959003 3.98142L2.75295 5.73044L2.32912 8.20017C2.31918 8.25762 2.32554 8.31671 2.34747 8.37073C2.3694 8.42475 2.40604 8.47155 2.45321 8.50581C2.50039 8.54007 2.55622 8.56043 2.61437 8.56458C2.67253 8.56872 2.73069 8.55649 2.78224 8.52927L5.00002 7.36325L7.21779 8.52927C7.27834 8.5615 7.34865 8.57224 7.41603 8.56052C7.58596 8.53122 7.70021 8.37009 7.67092 8.20017L7.24709 5.73044L9.04103 3.98142C9.08986 3.93357 9.12209 3.87107 9.13185 3.80271C9.15822 3.63181 9.03908 3.47361 8.86818 3.44822ZM6.49221 5.48435L6.84475 7.53806L5.00002 6.56931L3.15529 7.53904L3.50783 5.48532L2.01564 4.03025L4.07814 3.73044L5.00002 1.86228L5.92189 3.73044L7.98439 4.03025L6.49221 5.48435Z" fill="#246BFD"/>
</svg>
