<svg width="40" height="40" viewBox="0 0 40 40" fill="none" xmlns="http://www.w3.org/2000/svg">
<circle cx="20" cy="20" r="20" fill="#FF968E"/>
<path d="M22 17V24C22 24.5523 22.4477 25 23 25H26H29H31C31.5523 25 32 24.5523 32 24V20.6637C32 20.0249 31.6948 19.4244 31.1786 19.0479L27.5267 16.3842C27.1844 16.1345 26.7717 16 26.3481 16H23C22.4477 16 22 16.4477 22 17Z" fill="white"/>
<path d="M18 13H10C8.89543 13 8 13.8954 8 15V23C8 24.1046 8.89543 25 10 25H11H15H19C19.5523 25 20 24.5511 20 23.9988V15.0006C20 13.896 19.1046 13 18 13Z" fill="white"/>
<path d="M13 27C14.1046 27 15 26.1046 15 25C15 23.8954 14.1046 23 13 23C11.8954 23 11 23.8954 11 25C11 26.1046 11.8954 27 13 27Z" fill="white"/>
<path d="M27 27C28.1046 27 29 26.1046 29 25C29 23.8954 28.1046 23 27 23C25.8954 23 25 23.8954 25 25C25 26.1046 25.8954 27 27 27Z" fill="white"/>
</svg>
