<svg width="22" height="22" viewBox="0 0 22 22" fill="none" xmlns="http://www.w3.org/2000/svg">
<mask id="path-1-inside-1" fill="white">
<path fill-rule="evenodd" clip-rule="evenodd" d="M10.9855 6.01325e-07C10.3361 0.000414258 9.7078 0.212989 9.21189 0.600079L0.974111 7.02965C0.356889 7.5126 0 8.22123 0 8.96822V20.0264C0.000324033 20.55 0.225814 21.0519 0.626898 21.422C1.02798 21.7921 1.57183 22 2.13889 22H19.8611C20.4284 22 20.9724 21.792 21.3735 21.4216C21.7747 21.0513 22 20.549 22 20.0253V8.96822C22 8.2201 21.6419 7.50921 21.0222 7.02739L12.76 0.597823C12.2635 0.211364 11.6349 -0.000411849 10.9855 6.01325e-07Z"/>
</mask>
<path d="M9.21189 0.600079L10.1348 1.78255L10.1348 1.78251L9.21189 0.600079ZM10.9855 6.01325e-07L10.9845 -1.5H10.9845L10.9855 6.01325e-07ZM0.974111 7.02965L0.0511967 5.84718L0.0497582 5.8483L0.974111 7.02965ZM0 20.0264H-1.5L-1.5 20.0274L0 20.0264ZM0.626898 21.422L-0.390298 22.5244H-0.390298L0.626898 21.422ZM21.0222 7.02739L20.101 8.21118L20.1015 8.21155L21.0222 7.02739ZM12.76 0.597823L11.8386 1.7815L11.8388 1.78162L12.76 0.597823ZM10.1348 1.78251C10.3583 1.60806 10.6595 1.50021 10.9865 1.5L10.9845 -1.5C10.0126 -1.49938 9.05726 -1.18208 8.28893 -0.582353L10.1348 1.78251ZM1.89702 8.21212L10.1348 1.78255L8.28897 -0.582388L0.0511973 5.84718L1.89702 8.21212ZM1.5 8.96822C1.5 8.70994 1.62248 8.42694 1.89846 8.21099L0.0497582 5.8483C-0.908698 6.59826 -1.5 7.73251 -1.5 8.96822H1.5ZM1.5 20.0264V8.96822H-1.5V20.0264H1.5ZM1.64409 20.3196C1.53579 20.2197 1.50005 20.111 1.5 20.0255L-1.5 20.0274C-1.4994 20.989 -1.08417 21.8842 -0.390298 22.5244L1.64409 20.3196ZM2.13889 20.5C1.93258 20.5 1.75642 20.4233 1.64409 20.3196L-0.390298 22.5244C0.299547 23.161 1.21108 23.5 2.13889 23.5V20.5ZM19.8611 20.5H2.13889V23.5H19.8611V20.5ZM20.356 20.3195C20.2437 20.4232 20.0675 20.5 19.8611 20.5V23.5C20.7893 23.5 21.7011 23.1607 22.391 22.5237L20.356 20.3195ZM20.5 20.0253C20.5 20.1108 20.4643 20.2195 20.356 20.3195L22.391 22.5237C23.085 21.8831 23.5 20.9873 23.5 20.0253H20.5ZM20.5 8.96822V20.0253H23.5V8.96822H20.5ZM20.1015 8.21155C20.3765 8.4254 20.5 8.70884 20.5 8.96822H23.5C23.5 7.73135 22.9073 6.59302 21.943 5.84323L20.1015 8.21155ZM11.8388 1.78162L20.101 8.21118L21.9434 5.8436L13.6812 -0.58597L11.8388 1.78162ZM10.9865 1.5C11.3134 1.49979 11.6148 1.60726 11.8386 1.7815L13.6814 -0.585859C12.9122 -1.18453 11.9564 -1.50062 10.9845 -1.5L10.9865 1.5Z" fill="white" mask="url(#path-1-inside-1)"/>
<path d="M8 17.5C8 16.6716 8.67157 16 9.5 16H12.5C13.3284 16 14 16.6716 14 17.5V22H8V17.5Z" fill="#747578"/>
</svg>
