<svg width="36" height="34" viewBox="0 0 36 34" fill="none" xmlns="http://www.w3.org/2000/svg">
<rect x="0.687859" y="1.2152" width="33.9287" height="31.8209" rx="4.81501" stroke="#5E6272" stroke-width="1.37572"/>
<path fill-rule="evenodd" clip-rule="evenodd" d="M28.9447 16.9466C28.9447 22.9755 24.0573 27.8629 18.0284 27.8629C11.9995 27.8629 7.11206 22.9755 7.11206 16.9466C7.11206 10.9177 11.9995 6.03027 18.0284 6.03027C24.0573 6.03027 28.9447 10.9177 28.9447 16.9466ZM20.6511 12.8905C22.1696 13.4119 23.2804 14.1927 23.0625 15.6458C22.9042 16.7099 22.3121 17.2245 21.5255 17.4047C22.6047 17.9644 22.9725 19.0266 22.6308 20.3109C21.9818 22.1592 20.4394 22.3148 18.3877 21.9285L17.8896 23.9153L16.687 23.6164L17.1783 21.6562C16.8665 21.579 16.5479 21.4964 16.2196 21.4084L15.7263 23.3782L14.525 23.0792L15.0225 21.0883L12.6002 20.4795L13.1977 19.1076C13.1977 19.1076 14.0844 19.3417 14.0721 19.3246C14.4126 19.4086 14.5641 19.1875 14.6237 19.0407L15.9736 13.6481C15.9887 13.3935 15.9003 13.0727 15.4131 12.9512C15.4316 12.9382 14.5394 12.7349 14.5394 12.7349L14.8594 11.4551L17.2852 12.0537L17.7786 10.0853L18.9805 10.3842L18.4974 12.3137C18.8208 12.3868 19.1456 12.4612 19.4615 12.5397L19.9412 10.6224L21.1438 10.9214L20.6511 12.8905ZM17.7736 16.1743C18.5929 16.3915 20.3754 16.8641 20.6861 15.6249C21.0031 14.3571 19.2713 13.9743 18.4233 13.7868C18.3272 13.7655 18.2425 13.7468 18.1734 13.7296L17.5744 16.1225C17.6315 16.1366 17.6985 16.1544 17.7736 16.1743L17.7736 16.1743L17.7736 16.1743ZM16.8454 20.0269C17.8266 20.2854 19.9725 20.8506 20.314 19.4852C20.6635 18.0891 18.5829 17.6241 17.5677 17.3972L17.5676 17.3972C17.4542 17.3718 17.3541 17.3495 17.2722 17.3291L16.6116 19.9664C16.6787 19.983 16.7574 20.0037 16.8454 20.0269L16.8454 20.0269Z" fill="#F7931A"/>
</svg>
