<svg width="56" height="39" viewBox="0 0 56 39" fill="none" xmlns="http://www.w3.org/2000/svg">
<rect x="0.8125" y="0.8125" width="53.625" height="37.375" rx="5.6875" stroke="#5E6272" stroke-width="1.625"/>
<path fill-rule="evenodd" clip-rule="evenodd" d="M35.0632 29.9483C41.1486 29.9483 46.0818 25.0738 46.0818 19.0608C46.0818 13.0478 41.1486 8.17334 35.0632 8.17334C32.3359 8.17334 29.84 9.15244 27.9159 10.7743C25.9918 9.15254 23.496 8.17351 20.7687 8.17351C14.6833 8.17351 9.75012 13.048 9.75012 19.061C9.75012 25.074 14.6833 29.9485 20.7687 29.9485C23.4961 29.9485 25.992 28.9694 27.9161 27.3475C29.8401 28.9693 32.336 29.9483 35.0632 29.9483Z" fill="#ED0006"/>
<path fill-rule="evenodd" clip-rule="evenodd" d="M27.9158 27.3475C30.285 25.3506 31.7873 22.379 31.7873 19.0608C31.7873 15.7426 30.285 12.7711 27.9158 10.7742C29.8398 9.15237 32.3357 8.17334 35.0629 8.17334C41.1483 8.17334 46.0815 13.0478 46.0815 19.0608C46.0815 25.0738 41.1483 29.9483 35.0629 29.9483C32.3357 29.9483 29.8398 28.9693 27.9158 27.3475Z" fill="#F9A000"/>
<path fill-rule="evenodd" clip-rule="evenodd" d="M27.9159 27.3476C30.285 25.3506 31.7873 22.3792 31.7873 19.061C31.7873 15.7428 30.285 12.7714 27.9159 10.7744C25.5468 12.7714 24.0446 15.7428 24.0446 19.061C24.0446 22.3792 25.5468 25.3506 27.9159 27.3476Z" fill="#FF5E00"/>
</svg>
