<svg width="35" height="34" viewBox="0 0 35 34" fill="none" xmlns="http://www.w3.org/2000/svg">
<rect x="0.687859" y="1.21471" width="33.4017" height="31.8209" rx="4.81501" stroke="#5E6272" stroke-width="1.37572"/>
<path fill-rule="evenodd" clip-rule="evenodd" d="M14.3089 25.9066L14.6126 23.913L13.9362 23.8967H10.7061L12.9509 9.18529C12.9579 9.14074 12.9805 9.09939 13.0135 9.06997C13.0467 9.04055 13.0889 9.02441 13.1332 9.02441H18.5796C20.3879 9.02441 21.6357 9.41324 22.2871 10.1808C22.5925 10.5409 22.787 10.9173 22.8812 11.3313C22.9799 11.7659 22.9816 12.285 22.8853 12.9182L22.8783 12.9643V13.3701L23.1837 13.549C23.4409 13.69 23.6453 13.8514 23.8021 14.0361C24.0633 14.3441 24.2323 14.7355 24.3037 15.1993C24.3775 15.6763 24.3531 16.2442 24.2323 16.887C24.0929 17.6264 23.8676 18.2704 23.5633 18.7972C23.2836 19.2827 22.9271 19.6855 22.5037 19.9975C22.0995 20.294 21.6194 20.5191 21.0765 20.6632C20.5504 20.8047 19.9505 20.8762 19.2926 20.8762H18.8688C18.5658 20.8762 18.2714 20.989 18.0403 21.1912C17.8085 21.3976 17.6553 21.6797 17.6083 21.9882L17.5763 22.1677L17.0397 25.6816L17.0155 25.8106C17.009 25.8514 16.9979 25.8718 16.9816 25.8856C16.9672 25.8982 16.9464 25.9066 16.926 25.9066H14.3089Z" fill="#28356A"/>
<path fill-rule="evenodd" clip-rule="evenodd" d="M23.4731 13.0112C23.457 13.1186 23.4383 13.2284 23.4175 13.3412C22.6992 17.1528 20.2418 18.4696 17.1035 18.4696H15.5055C15.1217 18.4696 14.7982 18.7576 14.7385 19.1489L13.6886 26.032C13.6497 26.289 13.8413 26.5205 14.0921 26.5205H16.9264C17.2619 26.5205 17.547 26.2685 17.5999 25.9264L17.6277 25.7777L18.1613 22.2775L18.1956 22.0856C18.2478 21.7423 18.5336 21.4901 18.8691 21.4901H19.293C22.0389 21.4901 24.1886 20.3379 24.8168 17.0034C25.0792 15.6105 24.9434 14.4474 24.2489 13.6294C24.0388 13.3827 23.778 13.178 23.4731 13.0112Z" fill="#BECDE3"/>
<path fill-rule="evenodd" clip-rule="evenodd" d="M22.7214 12.7015C22.6116 12.6684 22.4984 12.6385 22.3823 12.6114C22.2655 12.585 22.146 12.5616 22.0228 12.5411C21.592 12.4692 21.1198 12.4351 20.6142 12.4351H16.3453C16.24 12.4351 16.1402 12.4596 16.0509 12.504C15.8539 12.6018 15.7077 12.7945 15.6723 13.0303L14.7641 18.9755L14.738 19.1488C14.7977 18.7575 15.1212 18.4695 15.5051 18.4695H17.103C20.2414 18.4695 22.6988 17.1521 23.417 13.3411C23.4385 13.2283 23.4565 13.1186 23.4726 13.0112C23.291 12.9115 23.0942 12.8262 22.8822 12.7536C22.8299 12.7356 22.7759 12.7183 22.7214 12.7015Z" fill="#F6F6F6"/>
<path fill-rule="evenodd" clip-rule="evenodd" d="M15.6726 13.0307C15.708 12.7948 15.8542 12.6022 16.0512 12.505C16.1411 12.4605 16.2404 12.4359 16.3456 12.4359H20.6145C21.1201 12.4359 21.5923 12.4702 22.0231 12.5422C22.1463 12.5625 22.2658 12.5861 22.3826 12.6125C22.4987 12.6394 22.6119 12.6694 22.7217 12.7024C22.7762 12.7192 22.8302 12.7367 22.883 12.754C23.095 12.8266 23.2919 12.9125 23.4736 13.0115C23.6873 11.603 23.4718 10.6439 22.735 9.77551C21.9226 8.81932 20.4566 8.41016 18.5805 8.41016H13.1339C12.7507 8.41016 12.4238 8.69812 12.3646 9.09014L10.096 23.9528C10.0513 24.2469 10.2707 24.5121 10.5576 24.5121H13.9201L15.6726 13.0307Z" fill="#F6F6F6"/>
</svg>
