<svg width="56" height="39" viewBox="0 0 56 39" fill="none" xmlns="http://www.w3.org/2000/svg">
<rect x="0.8125" y="0.8125" width="53.625" height="37.375" rx="5.6875" stroke="#5E6272" stroke-width="1.625"/>
<path fill-rule="evenodd" clip-rule="evenodd" d="M17.4692 25.7692H14.1221L11.6122 15.9122C11.4931 15.4587 11.2401 15.0579 10.8681 14.869C9.9395 14.3942 8.91629 14.0163 7.80005 13.8258V13.4463H13.1919C13.9361 13.4463 14.4942 14.0163 14.5872 14.6784L15.8895 21.7886L19.2349 13.4463H22.489L17.4692 25.7692ZM24.3495 25.7692H21.1884L23.7914 13.4463H26.9524L24.3495 25.7692ZM31.0419 16.8601C31.1349 16.1964 31.693 15.8169 32.3442 15.8169C33.3674 15.7217 34.482 15.9122 35.4122 16.3854L35.9703 13.7322C35.0401 13.3527 34.0169 13.1621 33.0883 13.1621C30.0203 13.1621 27.7878 14.869 27.7878 17.238C27.7878 19.0402 29.3692 19.9865 30.4854 20.5565C31.693 21.125 32.1581 21.5045 32.0651 22.0729C32.0651 22.9255 31.1349 23.305 30.2063 23.305C29.0901 23.305 27.9739 23.0208 26.9523 22.546L26.3942 25.2008C27.5104 25.674 28.718 25.8646 29.8343 25.8646C33.2743 25.9582 35.4122 24.2529 35.4122 21.6934C35.4122 18.4701 31.0419 18.2812 31.0419 16.8601ZM46.475 25.7692L43.9651 13.4463H41.2691C40.711 13.4463 40.1529 13.8258 39.9669 14.3942L35.3191 25.7692H38.5732L39.2227 23.9687H43.2209L43.593 25.7692H46.475ZM41.7344 16.7653L42.6629 21.4096H40.06L41.7344 16.7653Z" fill="#F6F6F6"/>
</svg>
